<svg id="Capa_1" enable-background="new 0 0 506.289 506.289" height="512" viewBox="0 0 506.289 506.289" width="512" xmlns="http://www.w3.org/2000/svg"><g><g><path d="m238.145 95.579h18.284v97.628h-18.284z" fill="#c3edb0"/></g><g><path d="m253.145 95.579h15v97.628h-15z" fill="#73cbb1"/></g><g><g><path d="m241.752 184.323c-42.08 2.939-79.702 22.028-106.719 51.112 13.658 9.472 32.47 22.967 48.654 27.386 5.191-13.05 42.148-69.065 58.065-78.498z" fill="#d5e7ff"/><path d="m180.111 256.467c-16.183-4.419-31.419-11.56-45.078-21.032-26.724 28.768-43.074 67.306-43.074 109.668l83.923 12.677s-2.534-84.313 4.229-101.313z" fill="#eaf1ff"/><path d="m169.696 345.103h-77.737c0 42.362 16.351 80.9 43.074 109.668 13.658-9.472 38.974-8.8 55.158-13.219z" fill="#d5e7ff"/></g><g><path d="m253.145 105.559h-31.129c-41.107 0-74.43-33.323-74.43-74.43v-31.129h31.129c41.107 0 74.43 33.323 74.43 74.43z" fill="#73cbb1"/><path d="m253.145 105.559h31.129c41.107 0 74.43-33.323 74.43-74.43v-31.129h-31.129c-41.107 0-74.43 33.323-74.43 74.43z" fill="#539499"/></g></g><path d="m180.111 256.467c12.444 3.398 80.534 13.638 80.534 13.638l-7.5-86.188c-3.831 0-7.628.143-11.392.406-28.298 16.769-49.776 42.316-61.642 72.144z" fill="#acceff"/><path d="m253.145 261.655s66.91 3.398 79.355 0c-5.192-13.05-17.171-58.411-67.962-77.332-3.764-.263-7.561-.406-11.392-.406v77.738z" fill="#8bb9ff"/><path d="m326.179 256.467c8.486-2.317 21.6 3.291 29.475-.467 7.142-3.408 9.107-16.06 15.602-20.565-27.017-29.084-64.639-48.173-106.719-51.112 28.298 16.769 49.775 42.316 61.642 72.144z" fill="#6ba7ff"/><path d="m253.145 261.655h-34.309c-13.277 0-26.281-1.79-38.725-5.188-6.763 16.999-10.414 35.383-10.414 54.327v34.309l88.397 7.473z" fill="#d5e7ff"/><path d="m326.179 256.467c-12.444 3.398-25.448 5.188-38.726 5.188h-34.309v83.448l90.542 12.677s9.887-82.731-17.507-101.313z" fill="#acceff"/><path d="m336.593 310.795v34.309l41.955 11.376 35.783-11.376c0-42.362-16.351-80.9-43.074-109.668-13.658 9.472-28.894 16.613-45.077 21.032 6.762 16.999 10.413 35.383 10.413 54.327z" fill="#8bb9ff"/><path d="m169.696 345.103v34.309c0 18.944 3.651 37.328 10.414 54.327 12.444-3.398 77.982 4.951 77.982 4.951l6.444-93.587z" fill="#acceff"/><path d="m253.145 428.552s63.008 14.285 75.452 17.684c24.673-24.673 7.996-101.132 7.996-101.132h-83.448z" fill="#8bb9ff"/><path d="m336.593 345.103v34.309c0 18.944-3.651 37.328-10.414 54.327 8.092 2.21 8.385 15.218 15.924 18.74s22.324-2.443 29.153 2.293c26.724-28.768 43.074-67.306 43.074-109.668h-77.737z" fill="#6ba7ff"/><path d="m180.111 433.74c-16.183 4.419-31.419 11.56-45.078 21.032 27.017 29.084 64.639 48.173 106.719 51.112-16.802-9.957-21.941-28.314-33.35-43.518-7.806-10.404-23.47-16.509-28.291-28.626z" fill="#eaf1ff"/><path d="m260.645 428.552h-41.809c-13.277 0-26.281 1.79-38.725 5.188 11.867 29.828 33.344 55.375 61.642 72.144 3.764.263 7.561.406 11.392.406z" fill="#d5e7ff"/><path d="m326.179 433.74c-12.444-3.398-25.448-5.188-38.726-5.188h-34.309v77.738c3.831 0 7.628-.143 11.392-.406 21.223-12.577 43.101-23.484 55.475-44.038 4.125-6.853 3.201-20.649 6.168-28.106z" fill="#acceff"/><path d="m264.537 505.883c42.08-2.939 79.702-22.028 106.719-51.112-13.658-9.472-28.894-16.613-45.077-21.032-11.867 29.829-33.344 55.375-61.642 72.144z" fill="#8bb9ff"/></g></svg>